<svg width="50" height="66" viewBox="0 0 50 66" fill="none" xmlns="http://www.w3.org/2000/svg">
<path d="M29.835 23.35C33.1217 23.35 36.2383 24.0583 39.185 25.475C42.1883 26.835 44.7383 29.13 46.835 32.36C48.9317 35.5333 49.98 39.3583 49.98 43.835C49.98 50.4083 47.9683 55.735 43.945 59.815C39.9783 63.8383 35.275 65.85 29.835 65.85C25.8683 65.85 22.6667 64.7733 20.23 62.62C20.23 64.2067 19.4083 65 17.765 65H3.485C2.06833 65 1.36 64.405 1.36 63.215V62.875C1.36 62.1383 1.92667 61.005 3.06 59.475C4.25 57.8883 4.845 56.33 4.845 54.8V18.505C4.845 17.315 4.47667 16.2667 3.74 15.36C3.00333 14.4533 2.26667 13.66 1.53 12.98C0.793333 12.2433 0.425 11.535 0.425 10.855V10.515C0.425 9.94833 0.595 9.495 0.935 9.155C1.275 8.75833 1.955 8.33333 2.975 7.88L17.765 1.08C18.8983 0.456665 19.9183 0.343331 20.825 0.739996C21.7317 1.13666 22.185 1.95833 22.185 3.205V25.22C24.1683 23.9733 26.7183 23.35 29.835 23.35ZM28.39 61.345C31.5633 61.345 33.15 58.3983 33.15 52.505C33.15 49.275 32.9517 45.9317 32.555 42.475C32.215 39.0183 31.45 35.7317 30.26 32.615C29.07 29.4417 27.5967 27.855 25.84 27.855C23.4033 27.855 22.185 30.0933 22.185 34.57V51.825C22.185 54.2617 22.8083 56.4717 24.055 58.455C25.3583 60.3817 26.8033 61.345 28.39 61.345Z" fill="#FE3C0B"/>
</svg>
