<svg width="702" height="166" viewBox="0 0 702 166" fill="none" xmlns="http://www.w3.org/2000/svg">
<path d="M59.7188 46.7C66.2922 46.7 72.5255 48.1167 78.4188 50.95C84.4255 53.67 89.5255 58.26 93.7188 64.72C97.9122 71.0667 100.009 78.7167 100.009 87.67C100.009 100.817 95.9855 111.47 87.9388 119.63C80.0055 127.677 70.5988 131.7 59.7188 131.7C51.7855 131.7 45.3822 129.547 40.5088 125.24C40.5088 128.413 38.8655 130 35.5788 130H7.01883C4.18549 130 2.76883 128.81 2.76883 126.43V125.75C2.76883 124.277 3.90216 122.01 6.16883 118.95C8.54883 115.777 9.73883 112.66 9.73883 109.6V37.01C9.73883 34.63 9.00216 32.5333 7.52883 30.72C6.0555 28.9067 4.58216 27.32 3.10883 25.96C1.63549 24.4867 0.898828 23.07 0.898828 21.71V21.03C0.898828 19.8967 1.23883 18.99 1.91883 18.31C2.59883 17.5167 3.95883 16.6667 5.99883 15.76L35.5788 2.15999C37.8455 0.91333 39.8855 0.686663 41.6988 1.47999C43.5122 2.27333 44.4188 3.91666 44.4188 6.40999V50.44C48.3855 47.9467 53.4855 46.7 59.7188 46.7ZM56.8288 122.69C63.1755 122.69 66.3488 116.797 66.3488 105.01C66.3488 98.55 65.9522 91.8633 65.1588 84.95C64.4788 78.0367 62.9488 71.4633 60.5688 65.23C58.1888 58.8833 55.2422 55.71 51.7288 55.71C46.8555 55.71 44.4188 60.1867 44.4188 69.14V103.65C44.4188 108.523 45.6655 112.943 48.1588 116.91C50.7655 120.763 53.6555 122.69 56.8288 122.69ZM178.451 102.46C179.697 101.1 181.114 100.703 182.701 101.27C184.287 101.837 185.081 103.083 185.081 105.01C185.081 110.903 182.077 116.853 176.071 122.86C170.064 128.753 161.337 131.7 149.891 131.7C137.197 131.7 126.771 127.733 118.611 119.8C110.564 111.867 106.541 101.497 106.541 88.69C106.541 76.3367 110.677 66.3067 118.951 58.6C127.337 50.78 137.367 46.8133 149.041 46.7C159.581 46.5867 168.024 48.91 174.371 53.67C180.717 58.3167 183.891 64.38 183.891 71.86C183.891 77.7533 181.341 83.0233 176.241 87.67C171.254 92.2033 164.737 95.0367 156.691 96.17C152.157 96.85 147.681 97.19 143.261 97.19C147.794 104.33 154.027 107.9 161.961 107.9C169.327 107.9 174.824 106.087 178.451 102.46ZM145.301 56.56C142.807 56.56 140.767 58.0333 139.181 60.98C137.707 63.9267 136.971 67.8367 136.971 72.71C136.971 78.2633 137.651 83.3067 139.011 87.84C140.484 87.84 141.447 87.7833 141.901 87.67C149.381 86.5367 153.121 80.3033 153.121 68.97C153.121 65.4567 152.327 62.51 150.741 60.13C149.267 57.75 147.454 56.56 145.301 56.56ZM226.731 127.28C222.991 130.227 218.231 131.7 212.451 131.7C206.671 131.7 201.911 130.227 198.171 127.28C194.431 124.22 192.561 119.8 192.561 114.02C192.561 108.24 194.431 103.877 198.171 100.93C201.911 97.87 206.671 96.34 212.451 96.34C218.231 96.34 222.991 97.87 226.731 100.93C230.471 103.877 232.341 108.24 232.341 114.02C232.341 119.8 230.471 124.22 226.731 127.28ZM295.101 46.7C301.674 46.7 307.908 48.1167 313.801 50.95C319.808 53.67 324.908 58.26 329.101 64.72C333.294 71.18 335.391 78.8867 335.391 87.84C335.391 100.987 331.424 111.583 323.491 119.63C315.558 127.677 306.094 131.7 295.101 131.7C288.981 131.7 283.881 130.51 279.801 128.13V144.79C279.801 147.85 281.104 150.91 283.711 153.97C286.318 157.143 287.621 159.467 287.621 160.94V161.62C287.621 164 286.204 165.19 283.371 165.19H243.421C240.588 165.19 239.171 164 239.171 161.62V160.94C239.171 159.467 240.304 157.143 242.571 153.97C244.951 150.91 246.141 147.85 246.141 144.79V80.7C246.141 77.8667 244.668 75.2033 241.721 72.71C238.888 70.2167 237.471 68.1767 237.471 66.59V65.57C237.471 63.53 238.888 61.7733 241.721 60.3L266.881 47.89C269.714 46.7567 271.698 46.5867 272.831 47.38C274.078 48.06 274.701 49.42 274.701 51.46V54.86C278.894 49.42 285.694 46.7 295.101 46.7ZM292.211 122.69C298.558 122.69 301.731 116.797 301.731 105.01C301.731 98.55 301.334 91.8633 300.541 84.95C299.861 78.0367 298.331 71.4633 295.951 65.23C293.571 58.8833 290.624 55.71 287.111 55.71C282.238 55.71 279.801 59.45 279.801 66.93V98.55C279.801 105.803 281.048 111.64 283.541 116.06C286.034 120.48 288.924 122.69 292.211 122.69ZM389.211 131.7C376.404 131.7 365.297 127.733 355.891 119.8C346.484 111.753 341.781 101.553 341.781 89.2C341.781 76.8467 346.484 66.7033 355.891 58.77C365.297 50.7233 376.404 46.7 389.211 46.7C402.131 46.7 413.237 50.7233 422.531 58.77C431.824 66.7033 436.471 76.8467 436.471 89.2C436.471 101.553 431.824 111.753 422.531 119.8C413.237 127.733 402.131 131.7 389.211 131.7ZM393.291 122.52C396.464 122.52 398.561 121.103 399.581 118.27C400.601 115.323 401.111 110.79 401.111 104.67C401.111 100.59 400.544 95.0367 399.411 88.01C398.391 80.87 396.407 73.73 393.461 66.59C390.627 59.45 387.284 55.88 383.431 55.88C380.371 55.88 378.331 57.2967 377.311 60.13C376.291 62.9633 375.781 67.61 375.781 74.07C375.781 78.6033 376.291 84.44 377.311 91.58C378.444 98.6067 380.427 105.52 383.261 112.32C386.207 119.12 389.551 122.52 393.291 122.52ZM446.462 130C443.629 130 442.212 128.81 442.212 126.43V125.75C442.212 124.277 443.346 122.01 445.612 118.95C447.992 115.777 449.182 112.66 449.182 109.6V36.67C449.182 33.61 447.992 30.6067 445.612 27.66C443.346 24.6 442.212 22.4467 442.212 21.2V20.52C442.212 19.0467 443.629 17.63 446.462 16.27L475.532 1.99C478.026 0.856664 480.009 0.743329 481.482 1.64999C483.069 2.55666 483.862 3.97333 483.862 5.9V109.6C483.862 112.66 485.166 115.777 487.772 118.95C490.379 122.01 491.682 124.277 491.682 125.75V126.43C491.682 128.81 490.266 130 487.432 130H446.462ZM538.311 34.63C534.345 38.2567 529.188 40.07 522.841 40.07C516.495 40.07 511.281 38.2567 507.201 34.63C503.235 31.0033 501.251 26.5267 501.251 21.2C501.251 15.8733 503.235 11.4533 507.201 7.93999C511.281 4.31332 516.495 2.49999 522.841 2.49999C529.188 2.49999 534.345 4.31332 538.311 7.93999C542.391 11.4533 544.431 15.8733 544.431 21.2C544.431 26.5267 542.391 31.0033 538.311 34.63ZM502.441 130C499.608 130 498.191 128.81 498.191 126.43V125.75C498.191 124.277 499.325 122.01 501.591 118.95C503.971 115.777 505.161 112.66 505.161 109.6V82.23C505.161 79.17 503.971 76.1667 501.591 73.22C499.325 70.16 498.191 68.0067 498.191 66.76V66.08C498.191 64.6067 499.608 63.19 502.441 61.83L531.511 47.55C534.005 46.4167 535.988 46.3033 537.461 47.21C539.048 48.1167 539.841 49.5333 539.841 51.46V109.6C539.841 112.66 541.145 115.777 543.751 118.95C546.358 122.01 547.661 124.277 547.661 125.75V126.43C547.661 128.81 546.245 130 543.411 130H502.441ZM590.183 131.7C581.229 131.7 574.089 128.867 568.763 123.2C563.549 117.42 560.943 109.26 560.943 98.72V61.15H555.843C554.596 61.15 553.576 60.7533 552.783 59.96C551.989 59.0533 551.593 58.0333 551.593 56.9V52.65C551.593 49.8167 553.009 48.4 555.843 48.4H558.223C563.776 48.4 568.649 46.8133 572.843 43.64C577.036 40.4667 579.756 36.2733 581.003 31.06C581.796 27.8867 583.496 26.3 586.103 26.3H590.693C592.166 26.3 593.356 26.7533 594.263 27.66C595.169 28.4533 595.623 29.5867 595.623 31.06V48.4H611.603C612.849 48.4 613.869 48.7967 614.663 49.59C615.456 50.3833 615.853 51.4033 615.853 52.65V56.9C615.853 58.0333 615.456 59.0533 614.663 59.96C613.869 60.7533 612.849 61.15 611.603 61.15H595.623V99.4C595.623 101.78 596.246 103.707 597.493 105.18C598.853 106.54 600.553 107.22 602.593 107.22C606.673 107.22 610.243 105.407 613.303 101.78C614.663 100.307 616.136 99.7967 617.723 100.25C619.309 100.59 620.103 101.61 620.103 103.31C620.103 110.79 617.439 117.42 612.113 123.2C606.786 128.867 599.476 131.7 590.183 131.7ZM695.091 102.46C696.338 101.1 697.755 100.703 699.341 101.27C700.928 101.837 701.721 103.083 701.721 105.01C701.721 110.903 698.718 116.853 692.711 122.86C686.705 128.753 677.978 131.7 666.531 131.7C653.838 131.7 643.411 127.733 635.251 119.8C627.205 111.867 623.181 101.497 623.181 88.69C623.181 76.3367 627.318 66.3067 635.591 58.6C643.978 50.78 654.008 46.8133 665.681 46.7C676.221 46.5867 684.665 48.91 691.011 53.67C697.358 58.3167 700.531 64.38 700.531 71.86C700.531 77.7533 697.981 83.0233 692.881 87.67C687.895 92.2033 681.378 95.0367 673.331 96.17C668.798 96.85 664.321 97.19 659.901 97.19C664.435 104.33 670.668 107.9 678.601 107.9C685.968 107.9 691.465 106.087 695.091 102.46ZM661.941 56.56C659.448 56.56 657.408 58.0333 655.821 60.98C654.348 63.9267 653.611 67.8367 653.611 72.71C653.611 78.2633 654.291 83.3067 655.651 87.84C657.125 87.84 658.088 87.7833 658.541 87.67C666.021 86.5367 669.761 80.3033 669.761 68.97C669.761 65.4567 668.968 62.51 667.381 60.13C665.908 57.75 664.095 56.56 661.941 56.56Z" fill="#FE3C0B"/>
</svg>
